<?xml version="1.0" encoding="UTF-8"?>
<svg version="1.1" viewBox="0 0 198.43 64.08" xmlns="http://www.w3.org/2000/svg">
 <title>Okte logo</title>
 <g>
  <g>
   <path d="M92.69,18.17,88.23,34.64h2.34l18.91-16.47H127L100.34,41.55l16,22.53H99.6L87.38,46.44H85L80.37,64.08H68.25L80.58,18.17Zm66.52,12.11-1.59,5.85h31.14l-2.66,10H155l-1.59,6.05H184.5l-3.18,11.91H138.07l12.32-45.91h43.25l-3.29,12.11Z" fill="#236192"/>
   <path d="M61.77,18.06,54.36,45.69a7.45,7.45,0,0,1-5.9,5.76L17,51.43c-2.79,0-4.54-1.58-3.82-4.46l8-30.07a6.21,6.21,0,0,1,5.63-4.36h106L131.16,19l-1.7,6.48-1.7,6.38L126,38.36l-1.7,6.38-1.8,6.48-1.81,6.37-1.7,6.49h12.65l1.7-6.49,1.7-6.37,1.8-6.48,1.7-6.38,1.81-6.48L142,25.4,143.7,19l1.7-6.48h49.73L198.43,0H31.69c-11,0-19.72,6.21-23,16.9L.78,46.15c-1.88,7-.54,12.6,6,16.38,3.92,1.68,7,1.4,11.22,1.44H45.09c9.85-.62,17-6.43,20.93-15.3l.53-1.7,7.76-28.91Z" fill="#002554"/>
  </g>
 </g>
</svg>
